<?xml version="1.0" encoding="UTF-8" standalone="no"?>
<svg width="12px" height="12px" viewBox="0 0 12 12" version="1.1" xmlns="http://www.w3.org/2000/svg" xmlns:xlink="http://www.w3.org/1999/xlink">
    <title>Shopify</title>
    <defs></defs>
    <g id="Master" stroke="none" stroke-width="1" fill="none" fill-rule="evenodd">
        <g id="Shopify" fill="#222222">
            <path d="M4.61538462,10.2307692 C4.61538462,10.4807705 4.52403937,10.6971145 4.34134615,10.8798077 C4.15865293,11.0625009 3.94230894,11.1538462 3.69230769,11.1538462 C3.44230644,11.1538462 3.22596245,11.0625009 3.04326923,10.8798077 C2.86057601,10.6971145 2.76923077,10.4807705 2.76923077,10.2307692 C2.76923077,9.98076798 2.86057601,9.76442399 3.04326923,9.58173077 C3.22596245,9.39903755 3.44230644,9.30769231 3.69230769,9.30769231 C3.94230894,9.30769231 4.15865293,9.39903755 4.34134615,9.58173077 C4.52403937,9.76442399 4.61538462,9.98076798 4.61538462,10.2307692 L4.61538462,10.2307692 Z M11.0769231,10.2307692 C11.0769231,10.4807705 10.9855778,10.6971145 10.8028846,10.8798077 C10.6201914,11.0625009 10.4038474,11.1538462 10.1538462,11.1538462 C9.9038449,11.1538462 9.68750091,11.0625009 9.50480769,10.8798077 C9.32211447,10.6971145 9.23076923,10.4807705 9.23076923,10.2307692 C9.23076923,9.98076798 9.32211447,9.76442399 9.50480769,9.58173077 C9.68750091,9.39903755 9.9038449,9.30769231 10.1538462,9.30769231 C10.4038474,9.30769231 10.6201914,9.39903755 10.8028846,9.58173077 C10.9855778,9.76442399 11.0769231,9.98076798 11.0769231,10.2307692 L11.0769231,10.2307692 Z M12,2.38461538 L12,6.07692308 C12,6.19230827 11.9603369,6.29447071 11.8810096,6.38341346 C11.8016823,6.47235621 11.7043275,6.52403839 11.5889423,6.53846154 L4.06009615,7.41826923 C4.12259647,7.70673221 4.15384615,7.87499976 4.15384615,7.92307692 C4.15384615,8.00000038 4.09615442,8.153845 3.98076923,8.38461538 L10.6153846,8.38461538 C10.7403852,8.38461538 10.8485572,8.430288 10.9399038,8.52163462 C11.0312505,8.61298123 11.0769231,8.72115322 11.0769231,8.84615385 C11.0769231,8.97115447 11.0312505,9.07932647 10.9399038,9.17067308 C10.8485572,9.26201969 10.7403852,9.30769231 10.6153846,9.30769231 L3.23076923,9.30769231 C3.10576861,9.30769231 2.99759661,9.26201969 2.90625,9.17067308 C2.81490339,9.07932647 2.76923077,8.97115447 2.76923077,8.84615385 C2.76923077,8.79326897 2.78846135,8.71754857 2.82692308,8.61899038 C2.86538481,8.5204322 2.90384596,8.4338946 2.94230769,8.359375 C2.98076942,8.2848554 3.0324516,8.18870251 3.09735577,8.07091346 C3.16225994,7.95312441 3.19951918,7.88221166 3.20913462,7.85817308 L1.93269231,1.92307692 L0.461538462,1.92307692 C0.336537837,1.92307692 0.228365841,1.8774043 0.137019231,1.78605769 C0.0456726202,1.69471108 0,1.58653909 0,1.46153846 C0,1.33653784 0.0456726202,1.22836584 0.137019231,1.13701923 C0.228365841,1.04567262 0.336537837,1 0.461538462,1 L2.30769231,1 C2.38461577,1 2.4531247,1.01562484 2.51322115,1.046875 C2.57331761,1.07812516 2.62019214,1.1153844 2.65384615,1.15865385 C2.68750017,1.20192329 2.71874986,1.26081694 2.74759615,1.33533654 C2.77644245,1.40985614 2.79567303,1.47235552 2.80528846,1.52283654 C2.81490389,1.57331756 2.82812492,1.64423031 2.84495192,1.73557692 C2.86177893,1.82692353 2.87259613,1.88942291 2.87740385,1.92307692 L11.5384615,1.92307692 C11.6634622,1.92307692 11.7716342,1.96874954 11.8629808,2.06009615 C11.9543274,2.15144276 12,2.25961476 12,2.38461538 L12,2.38461538 Z" id="ïº"></path>
        </g>
    </g>
</svg>
