<svg width="18" height="18" viewBox="0 0 18 18" fill="none" xmlns="http://www.w3.org/2000/svg">
<path d="M1 0.5H17C17.2761 0.5 17.5 0.723858 17.5 1V12C17.5 12.2761 17.2761 12.5 17 12.5H1C0.723858 12.5 0.5 12.2761 0.5 12V1C0.5 0.723858 0.723858 0.5 1 0.5Z" transform="translate(0 3)" stroke="white"/>
<path d="M1 0.5H5C5.27614 0.5 5.5 0.723858 5.5 1V3.5H0.5V1C0.5 0.723858 0.723858 0.5 1 0.5Z" transform="translate(6)" stroke="white"/>
<path opacity="0.4" d="M0 0V13" transform="translate(3.5 3)" stroke="white"/>
<path opacity="0.4" d="M0 0V13" transform="translate(14.5 3)" stroke="white"/>
</svg>
